# xmcd
#
# Track frame offsets:
#	150
#	25245
#	37047
#	48147
#	71539
#	85593
#	98635
#	116992
#	136277
#	148407
#	165477
#	176681
#	190445
#	205269
#	224966
#	235266
#	251163
#	270457
#
# Disc length: 3815 seconds
#
# Revision: 0
# Processed by: cddbd v1.4PL0 Copyright (c) Steve Scherf et al.
# Submitted via: MusicWizard 6.0.0
#
DISCID=130ee512
DTITLE=Various Artist - Blues Ballads  (2cd's) [CD 2/2)
DYEAR=1900
DGENRE=Blues
TTITLE0=Ike and Tina Turner - All I Can Do Is Cry
TTITLE1=Big Joe Williams - Sloopy Drunk Blues
TTITLE2=John Lee Hooker - Send Me The Pillow You
TTITLE3=Mississipi John Hurt - The Angels Laid
TTITLE4=Lightning Slim - Good Morning Heartaches
TTITLE5=Elmore James - Held My Baby Last Night
TTITLE6=Brownie Mc Ghee and Sonny Terry - I'm A Stranger Here
TTITLE7=Mike Bloomfield - Eyesight To The Blind
TTITLE8=Lightnin' Hopkins - Don't Think Cause You're Pretty
TTITLE9=Johnny Winter - Kind Hearted Woman
TTITLE10=Canned Heat - Can't Hold On
TTITLE11=Ray Charles - I'm Gonna Drown Myself
TTITLE12=John Mayall - Why Worry
TTITLE13=Eric Burdon and The Animals - Gotta Find My Baby
TTITLE14=Johnny Guitar - Blues Side
TTITLE15=Fleetwood Mac - My Baby's Aweet
TTITLE16=Jelly Roll Morton - Dead Man Blues
TTITLE17=B.B. King - Walkin' And Cryin'
EXTD=
EXTT0=
EXTT1=
EXTT2=
EXTT3=
EXTT4=
EXTT5=
EXTT6=
EXTT7=
EXTT8=
EXTT9=
EXTT10=
EXTT11=
EXTT12=
EXTT13=
EXTT14=
EXTT15=
EXTT16=
EXTT17=
PLAYORDER=
